<svg id="Capa_1" enable-background="new 0 0 512 512" height="512" viewBox="0 0 512 512" width="512" xmlns="http://www.w3.org/2000/svg"><g><g><path d="m438.443 502.309h-364.886c-35.091 0-63.537-28.447-63.537-63.537v-365.543c0-35.091 28.447-63.537 63.537-63.537h364.887c35.091 0 63.537 28.447 63.537 63.537v365.543c-.001 35.09-28.447 63.537-63.538 63.537z" fill="#faf7f5"/><circle cx="112.227" cy="125.955" fill="#fff2a0" r="35.888"/><path d="m399.843 161.843h-161.114c-19.782 0-35.818-16.036-35.818-35.818v-.14c0-19.782 16.036-35.818 35.818-35.818h161.115c19.782 0 35.818 16.036 35.818 35.818v.14c-.001 19.782-16.037 35.818-35.819 35.818z" fill="#fff7bf"/><circle cx="112.227" cy="257.544" fill="#fff2a0" r="35.888"/><path d="m399.773 221.656h-160.974c-19.82 0-35.888 16.068-35.888 35.888 0 19.82 16.068 35.888 35.888 35.888h35.574 89.827 35.574c19.82 0 35.888-16.068 35.888-35.888-.001-19.82-16.069-35.888-35.889-35.888z" fill="#fff7bf"/><circle cx="112.227" cy="389.133" fill="#fff2a0" r="35.888"/><path d="m399.843 425.021h-161.114c-19.782 0-35.818-16.036-35.818-35.818v-.14c0-19.782 16.036-35.818 35.818-35.818h161.115c19.782 0 35.818 16.036 35.818 35.818v.14c-.001 19.782-16.037 35.818-35.819 35.818z" fill="#fff7bf"/></g><g><path d="m112.227 171.863c-25.314 0-45.908-20.594-45.908-45.908 0-25.313 20.594-45.907 45.908-45.907s45.908 20.594 45.908 45.907c0 25.314-20.594 45.908-45.908 45.908zm0-71.776c-14.264 0-25.868 11.604-25.868 25.868s11.605 25.868 25.868 25.868 25.868-11.605 25.868-25.868-11.604-25.868-25.868-25.868z"/><path d="m399.773 171.863h-160.975c-25.313 0-45.907-20.594-45.907-45.907 0-25.314 20.594-45.908 45.907-45.908h160.975c25.314 0 45.908 20.594 45.908 45.907 0 25.314-20.594 45.908-45.908 45.908zm-160.975-71.776c-14.264 0-25.868 11.604-25.868 25.868s11.604 25.868 25.868 25.868h160.975c14.264 0 25.868-11.604 25.868-25.868s-11.605-25.868-25.868-25.868z"/><path d="m112.227 303.452c-25.314 0-45.908-20.594-45.908-45.908s20.594-45.908 45.908-45.908 45.908 20.594 45.908 45.908-20.594 45.908-45.908 45.908zm0-71.776c-14.264 0-25.868 11.605-25.868 25.868s11.605 25.868 25.868 25.868 25.868-11.605 25.868-25.868-11.604-25.868-25.868-25.868z"/><path d="m399.773 303.452h-35.574c-5.534 0-10.02-4.486-10.02-10.02s4.486-10.02 10.02-10.02h35.574c14.264 0 25.868-11.605 25.868-25.868s-11.605-25.868-25.868-25.868h-160.975c-14.264 0-25.868 11.605-25.868 25.868s11.604 25.868 25.868 25.868h35.574c5.534 0 10.02 4.486 10.02 10.02s-4.486 10.02-10.02 10.02h-35.574c-25.313 0-45.907-20.594-45.907-45.908s20.594-45.908 45.907-45.908h160.975c25.314 0 45.908 20.594 45.908 45.908s-20.594 45.908-45.908 45.908z"/><path d="m112.227 435.041c-25.314 0-45.908-20.594-45.908-45.908s20.594-45.908 45.908-45.908 45.908 20.594 45.908 45.908-20.594 45.908-45.908 45.908zm0-71.776c-14.264 0-25.868 11.605-25.868 25.868 0 14.264 11.605 25.868 25.868 25.868s25.868-11.605 25.868-25.868c0-14.264-11.604-25.868-25.868-25.868z"/><path d="m399.773 435.041h-160.975c-25.313 0-45.907-20.594-45.907-45.908s20.594-45.908 45.907-45.908h160.975c25.314 0 45.908 20.594 45.908 45.908s-20.594 45.908-45.908 45.908zm-160.975-71.776c-14.264 0-25.868 11.605-25.868 25.868 0 14.264 11.604 25.868 25.868 25.868h160.975c14.264 0 25.868-11.605 25.868-25.868 0-14.264-11.605-25.868-25.868-25.868z"/><path d="m438.319 512h-364.638c-40.628 0-73.681-33.896-73.681-75.559v-360.882c0-41.663 33.053-75.559 73.681-75.559h364.638c40.628 0 73.681 33.896 73.681 75.559v360.881c0 41.664-33.053 75.56-73.681 75.56zm-364.638-491.45c-29.578 0-53.642 24.677-53.642 55.009v360.881c0 30.332 24.064 55.009 53.642 55.009h364.638c29.578 0 53.642-24.677 53.642-55.009v-360.881c0-30.332-24.064-55.009-53.642-55.009z"/><circle cx="319.286" cy="293.432" r="10"/></g></g></svg>